<mxfile host="app.diagrams.net" modified="2024-05-15T18:47:30.936Z" agent="Mozilla/5.0 (Macintosh; Intel Mac OS X 10_15_7) AppleWebKit/537.36 (KHTML, like Gecko) Chrome/124.0.0.0 Safari/537.36" etag="THhtuXZn-RQHPY4Qz-l1" version="24.4.0" type="github">
  <diagram name="Page-1" id="qddzFSOV7XdWi6RqzjTM">
    <mxGraphModel dx="2533" dy="1114" grid="1" gridSize="10" guides="1" tooltips="1" connect="1" arrows="1" fold="1" page="1" pageScale="1" pageWidth="827" pageHeight="1169" math="0" shadow="0">
      <root>
        <mxCell id="0" />
        <mxCell id="1" parent="0" />
        <mxCell id="BmGMHnQxXQs_2eqhpalO-1" value="Recipe Manager Service" style="rounded=1;whiteSpace=wrap;html=1;" vertex="1" parent="1">
          <mxGeometry x="-420" y="100" width="120" height="60" as="geometry" />
        </mxCell>
        <mxCell id="BmGMHnQxXQs_2eqhpalO-2" value="Food Menu Manager Service" style="rounded=1;whiteSpace=wrap;html=1;" vertex="1" parent="1">
          <mxGeometry x="-100" y="430" width="130" height="60" as="geometry" />
        </mxCell>
        <mxCell id="BmGMHnQxXQs_2eqhpalO-16" style="edgeStyle=orthogonalEdgeStyle;rounded=0;orthogonalLoop=1;jettySize=auto;html=1;" edge="1" parent="1" source="BmGMHnQxXQs_2eqhpalO-3" target="BmGMHnQxXQs_2eqhpalO-1">
          <mxGeometry relative="1" as="geometry" />
        </mxCell>
        <mxCell id="BmGMHnQxXQs_2eqhpalO-17" style="edgeStyle=orthogonalEdgeStyle;rounded=0;orthogonalLoop=1;jettySize=auto;html=1;entryX=0.5;entryY=1;entryDx=0;entryDy=0;" edge="1" parent="1" source="BmGMHnQxXQs_2eqhpalO-3" target="BmGMHnQxXQs_2eqhpalO-6">
          <mxGeometry relative="1" as="geometry" />
        </mxCell>
        <mxCell id="BmGMHnQxXQs_2eqhpalO-18" style="edgeStyle=orthogonalEdgeStyle;rounded=0;orthogonalLoop=1;jettySize=auto;html=1;entryX=0.5;entryY=1;entryDx=0;entryDy=0;" edge="1" parent="1" source="BmGMHnQxXQs_2eqhpalO-3" target="BmGMHnQxXQs_2eqhpalO-2">
          <mxGeometry relative="1" as="geometry" />
        </mxCell>
        <mxCell id="BmGMHnQxXQs_2eqhpalO-20" style="edgeStyle=orthogonalEdgeStyle;rounded=0;orthogonalLoop=1;jettySize=auto;html=1;entryX=0.5;entryY=1;entryDx=0;entryDy=0;" edge="1" parent="1" source="BmGMHnQxXQs_2eqhpalO-3" target="BmGMHnQxXQs_2eqhpalO-19">
          <mxGeometry relative="1" as="geometry" />
        </mxCell>
        <mxCell id="BmGMHnQxXQs_2eqhpalO-3" value="Bill Manager Service" style="rounded=1;whiteSpace=wrap;html=1;" vertex="1" parent="1">
          <mxGeometry x="-413" y="740" width="180" height="60" as="geometry" />
        </mxCell>
        <mxCell id="BmGMHnQxXQs_2eqhpalO-27" style="edgeStyle=orthogonalEdgeStyle;rounded=0;orthogonalLoop=1;jettySize=auto;html=1;entryX=0.25;entryY=1;entryDx=0;entryDy=0;" edge="1" parent="1" source="BmGMHnQxXQs_2eqhpalO-4" target="BmGMHnQxXQs_2eqhpalO-19">
          <mxGeometry relative="1" as="geometry" />
        </mxCell>
        <mxCell id="BmGMHnQxXQs_2eqhpalO-30" style="edgeStyle=orthogonalEdgeStyle;rounded=0;orthogonalLoop=1;jettySize=auto;html=1;" edge="1" parent="1" source="BmGMHnQxXQs_2eqhpalO-4" target="BmGMHnQxXQs_2eqhpalO-3">
          <mxGeometry relative="1" as="geometry" />
        </mxCell>
        <mxCell id="BmGMHnQxXQs_2eqhpalO-4" value="Payment Manager Service" style="rounded=1;whiteSpace=wrap;html=1;" vertex="1" parent="1">
          <mxGeometry x="280" y="660" width="120" height="60" as="geometry" />
        </mxCell>
        <mxCell id="BmGMHnQxXQs_2eqhpalO-12" style="edgeStyle=orthogonalEdgeStyle;rounded=0;orthogonalLoop=1;jettySize=auto;html=1;" edge="1" parent="1" source="BmGMHnQxXQs_2eqhpalO-5" target="BmGMHnQxXQs_2eqhpalO-10">
          <mxGeometry relative="1" as="geometry">
            <Array as="points">
              <mxPoint x="240" y="240" />
            </Array>
          </mxGeometry>
        </mxCell>
        <mxCell id="BmGMHnQxXQs_2eqhpalO-13" style="edgeStyle=orthogonalEdgeStyle;rounded=0;orthogonalLoop=1;jettySize=auto;html=1;entryX=0;entryY=0.5;entryDx=0;entryDy=0;" edge="1" parent="1" source="BmGMHnQxXQs_2eqhpalO-5" target="BmGMHnQxXQs_2eqhpalO-7">
          <mxGeometry relative="1" as="geometry" />
        </mxCell>
        <mxCell id="BmGMHnQxXQs_2eqhpalO-14" style="edgeStyle=orthogonalEdgeStyle;rounded=0;orthogonalLoop=1;jettySize=auto;html=1;entryX=0.75;entryY=1;entryDx=0;entryDy=0;" edge="1" parent="1" source="BmGMHnQxXQs_2eqhpalO-5" target="BmGMHnQxXQs_2eqhpalO-1">
          <mxGeometry relative="1" as="geometry" />
        </mxCell>
        <mxCell id="BmGMHnQxXQs_2eqhpalO-5" value="Cart Manager Service" style="rounded=1;whiteSpace=wrap;html=1;" vertex="1" parent="1">
          <mxGeometry x="-150" y="210" width="120" height="60" as="geometry" />
        </mxCell>
        <mxCell id="BmGMHnQxXQs_2eqhpalO-24" style="edgeStyle=orthogonalEdgeStyle;rounded=0;orthogonalLoop=1;jettySize=auto;html=1;entryX=1;entryY=0.5;entryDx=0;entryDy=0;" edge="1" parent="1" source="BmGMHnQxXQs_2eqhpalO-6" target="BmGMHnQxXQs_2eqhpalO-2">
          <mxGeometry relative="1" as="geometry" />
        </mxCell>
        <mxCell id="BmGMHnQxXQs_2eqhpalO-26" style="edgeStyle=orthogonalEdgeStyle;rounded=0;orthogonalLoop=1;jettySize=auto;html=1;entryX=1;entryY=0.75;entryDx=0;entryDy=0;" edge="1" parent="1" source="BmGMHnQxXQs_2eqhpalO-6" target="BmGMHnQxXQs_2eqhpalO-1">
          <mxGeometry relative="1" as="geometry" />
        </mxCell>
        <mxCell id="BmGMHnQxXQs_2eqhpalO-6" value="Order&lt;span style=&quot;background-color: initial;&quot;&gt;&amp;nbsp;Manager Service&lt;/span&gt;" style="rounded=1;whiteSpace=wrap;html=1;" vertex="1" parent="1">
          <mxGeometry x="550" y="270" width="160" height="70" as="geometry" />
        </mxCell>
        <mxCell id="BmGMHnQxXQs_2eqhpalO-31" style="edgeStyle=orthogonalEdgeStyle;rounded=0;orthogonalLoop=1;jettySize=auto;html=1;" edge="1" parent="1" source="BmGMHnQxXQs_2eqhpalO-7" target="BmGMHnQxXQs_2eqhpalO-19">
          <mxGeometry relative="1" as="geometry" />
        </mxCell>
        <mxCell id="BmGMHnQxXQs_2eqhpalO-7" value="&lt;span style=&quot;background-color: initial;&quot;&gt;Table&lt;/span&gt;&lt;span style=&quot;background-color: initial;&quot;&gt;&amp;nbsp;Manager Service&lt;/span&gt;" style="rounded=1;whiteSpace=wrap;html=1;" vertex="1" parent="1">
          <mxGeometry x="780" y="210" width="120" height="60" as="geometry" />
        </mxCell>
        <mxCell id="BmGMHnQxXQs_2eqhpalO-10" value="Database" style="shape=cylinder3;whiteSpace=wrap;html=1;boundedLbl=1;backgroundOutline=1;size=15;" vertex="1" parent="1">
          <mxGeometry x="220" y="10" width="80" height="100" as="geometry" />
        </mxCell>
        <mxCell id="BmGMHnQxXQs_2eqhpalO-11" style="edgeStyle=orthogonalEdgeStyle;rounded=0;orthogonalLoop=1;jettySize=auto;html=1;entryX=0;entryY=0.5;entryDx=0;entryDy=0;entryPerimeter=0;" edge="1" parent="1" source="BmGMHnQxXQs_2eqhpalO-1" target="BmGMHnQxXQs_2eqhpalO-10">
          <mxGeometry relative="1" as="geometry" />
        </mxCell>
        <mxCell id="BmGMHnQxXQs_2eqhpalO-15" style="edgeStyle=orthogonalEdgeStyle;rounded=0;orthogonalLoop=1;jettySize=auto;html=1;entryX=0.575;entryY=-0.033;entryDx=0;entryDy=0;entryPerimeter=0;" edge="1" parent="1" source="BmGMHnQxXQs_2eqhpalO-5" target="BmGMHnQxXQs_2eqhpalO-2">
          <mxGeometry relative="1" as="geometry" />
        </mxCell>
        <mxCell id="BmGMHnQxXQs_2eqhpalO-19" value="&lt;span style=&quot;background-color: initial;&quot;&gt;Booked Table&lt;/span&gt;&lt;span style=&quot;background-color: initial;&quot;&gt;&amp;nbsp;Manager Service&lt;/span&gt;" style="rounded=1;whiteSpace=wrap;html=1;" vertex="1" parent="1">
          <mxGeometry x="400" y="430" width="120" height="60" as="geometry" />
        </mxCell>
        <mxCell id="BmGMHnQxXQs_2eqhpalO-21" style="edgeStyle=orthogonalEdgeStyle;rounded=0;orthogonalLoop=1;jettySize=auto;html=1;entryX=0.167;entryY=1.017;entryDx=0;entryDy=0;entryPerimeter=0;" edge="1" parent="1" source="BmGMHnQxXQs_2eqhpalO-2" target="BmGMHnQxXQs_2eqhpalO-1">
          <mxGeometry relative="1" as="geometry" />
        </mxCell>
        <mxCell id="BmGMHnQxXQs_2eqhpalO-23" style="edgeStyle=orthogonalEdgeStyle;rounded=0;orthogonalLoop=1;jettySize=auto;html=1;entryX=0.417;entryY=-0.017;entryDx=0;entryDy=0;entryPerimeter=0;" edge="1" parent="1" source="BmGMHnQxXQs_2eqhpalO-6" target="BmGMHnQxXQs_2eqhpalO-19">
          <mxGeometry relative="1" as="geometry">
            <Array as="points">
              <mxPoint x="450" y="305" />
            </Array>
          </mxGeometry>
        </mxCell>
        <mxCell id="BmGMHnQxXQs_2eqhpalO-32" style="edgeStyle=orthogonalEdgeStyle;rounded=0;orthogonalLoop=1;jettySize=auto;html=1;entryX=1;entryY=0.5;entryDx=0;entryDy=0;entryPerimeter=0;" edge="1" parent="1" source="BmGMHnQxXQs_2eqhpalO-7" target="BmGMHnQxXQs_2eqhpalO-10">
          <mxGeometry relative="1" as="geometry">
            <Array as="points">
              <mxPoint x="380" y="180" />
              <mxPoint x="380" y="60" />
            </Array>
          </mxGeometry>
        </mxCell>
        <mxCell id="BmGMHnQxXQs_2eqhpalO-33" style="edgeStyle=orthogonalEdgeStyle;rounded=0;orthogonalLoop=1;jettySize=auto;html=1;entryX=1;entryY=0;entryDx=0;entryDy=67.5;entryPerimeter=0;" edge="1" parent="1" source="BmGMHnQxXQs_2eqhpalO-6" target="BmGMHnQxXQs_2eqhpalO-10">
          <mxGeometry relative="1" as="geometry" />
        </mxCell>
        <mxCell id="BmGMHnQxXQs_2eqhpalO-34" style="edgeStyle=orthogonalEdgeStyle;rounded=0;orthogonalLoop=1;jettySize=auto;html=1;entryX=1;entryY=0;entryDx=0;entryDy=32.5;entryPerimeter=0;" edge="1" parent="1" source="BmGMHnQxXQs_2eqhpalO-19" target="BmGMHnQxXQs_2eqhpalO-10">
          <mxGeometry relative="1" as="geometry" />
        </mxCell>
        <mxCell id="BmGMHnQxXQs_2eqhpalO-35" style="edgeStyle=orthogonalEdgeStyle;rounded=0;orthogonalLoop=1;jettySize=auto;html=1;entryX=1;entryY=1;entryDx=0;entryDy=-15;entryPerimeter=0;" edge="1" parent="1" source="BmGMHnQxXQs_2eqhpalO-2" target="BmGMHnQxXQs_2eqhpalO-10">
          <mxGeometry relative="1" as="geometry" />
        </mxCell>
        <mxCell id="BmGMHnQxXQs_2eqhpalO-37" style="edgeStyle=orthogonalEdgeStyle;rounded=0;orthogonalLoop=1;jettySize=auto;html=1;" edge="1" parent="1" source="BmGMHnQxXQs_2eqhpalO-3" target="BmGMHnQxXQs_2eqhpalO-10">
          <mxGeometry relative="1" as="geometry">
            <Array as="points">
              <mxPoint x="290" y="585" />
            </Array>
          </mxGeometry>
        </mxCell>
        <mxCell id="BmGMHnQxXQs_2eqhpalO-38" style="edgeStyle=orthogonalEdgeStyle;rounded=0;orthogonalLoop=1;jettySize=auto;html=1;entryX=0.638;entryY=1;entryDx=0;entryDy=0;entryPerimeter=0;" edge="1" parent="1" source="BmGMHnQxXQs_2eqhpalO-4" target="BmGMHnQxXQs_2eqhpalO-10">
          <mxGeometry relative="1" as="geometry">
            <Array as="points">
              <mxPoint x="340" y="385" />
              <mxPoint x="271" y="385" />
            </Array>
          </mxGeometry>
        </mxCell>
        <mxCell id="BmGMHnQxXQs_2eqhpalO-43" value="Prepare Food Queue" style="shape=cylinder3;whiteSpace=wrap;html=1;boundedLbl=1;backgroundOutline=1;size=15;direction=south;" vertex="1" parent="1">
          <mxGeometry x="200" y="860" width="140" height="60" as="geometry" />
        </mxCell>
        <mxCell id="BmGMHnQxXQs_2eqhpalO-46" value="Generate Bill Queue" style="shape=cylinder3;whiteSpace=wrap;html=1;boundedLbl=1;backgroundOutline=1;size=15;direction=north;" vertex="1" parent="1">
          <mxGeometry x="400" y="990" width="140" height="60" as="geometry" />
        </mxCell>
        <mxCell id="BmGMHnQxXQs_2eqhpalO-47" value="Clean Table Queue" style="shape=cylinder3;whiteSpace=wrap;html=1;boundedLbl=1;backgroundOutline=1;size=15;direction=north;" vertex="1" parent="1">
          <mxGeometry x="40" y="1030" width="140" height="60" as="geometry" />
        </mxCell>
        <mxCell id="BmGMHnQxXQs_2eqhpalO-50" style="edgeStyle=orthogonalEdgeStyle;rounded=0;orthogonalLoop=1;jettySize=auto;html=1;entryX=0.5;entryY=0;entryDx=0;entryDy=0;entryPerimeter=0;" edge="1" parent="1" source="BmGMHnQxXQs_2eqhpalO-6" target="BmGMHnQxXQs_2eqhpalO-43">
          <mxGeometry relative="1" as="geometry">
            <Array as="points">
              <mxPoint x="530" y="305" />
              <mxPoint x="530" y="890" />
            </Array>
          </mxGeometry>
        </mxCell>
        <mxCell id="BmGMHnQxXQs_2eqhpalO-51" style="edgeStyle=orthogonalEdgeStyle;rounded=0;orthogonalLoop=1;jettySize=auto;html=1;entryX=0.5;entryY=0;entryDx=0;entryDy=0;entryPerimeter=0;" edge="1" parent="1" source="BmGMHnQxXQs_2eqhpalO-3" target="BmGMHnQxXQs_2eqhpalO-46">
          <mxGeometry relative="1" as="geometry" />
        </mxCell>
        <mxCell id="BmGMHnQxXQs_2eqhpalO-53" style="edgeStyle=orthogonalEdgeStyle;rounded=0;orthogonalLoop=1;jettySize=auto;html=1;entryX=0.5;entryY=1;entryDx=0;entryDy=0;entryPerimeter=0;" edge="1" parent="1" source="BmGMHnQxXQs_2eqhpalO-7" target="BmGMHnQxXQs_2eqhpalO-47">
          <mxGeometry relative="1" as="geometry">
            <Array as="points">
              <mxPoint x="730" y="240" />
              <mxPoint x="730" y="1060" />
            </Array>
          </mxGeometry>
        </mxCell>
        <mxCell id="BmGMHnQxXQs_2eqhpalO-55" style="edgeStyle=orthogonalEdgeStyle;rounded=0;orthogonalLoop=1;jettySize=auto;html=1;entryX=0.5;entryY=1;entryDx=0;entryDy=0;entryPerimeter=0;" edge="1" parent="1" target="BmGMHnQxXQs_2eqhpalO-43">
          <mxGeometry relative="1" as="geometry">
            <mxPoint x="-80" y="890" as="sourcePoint" />
          </mxGeometry>
        </mxCell>
        <mxCell id="BmGMHnQxXQs_2eqhpalO-71" style="edgeStyle=orthogonalEdgeStyle;rounded=0;orthogonalLoop=1;jettySize=auto;html=1;entryX=1;entryY=0.5;entryDx=0;entryDy=0;" edge="1" parent="1" source="BmGMHnQxXQs_2eqhpalO-57" target="BmGMHnQxXQs_2eqhpalO-70">
          <mxGeometry relative="1" as="geometry" />
        </mxCell>
        <mxCell id="BmGMHnQxXQs_2eqhpalO-57" value="Kitchen Cook Service Daemon" style="whiteSpace=wrap;html=1;aspect=fixed;" vertex="1" parent="1">
          <mxGeometry x="-170" y="850" width="90" height="90" as="geometry" />
        </mxCell>
        <mxCell id="BmGMHnQxXQs_2eqhpalO-63" style="edgeStyle=orthogonalEdgeStyle;rounded=0;orthogonalLoop=1;jettySize=auto;html=1;" edge="1" parent="1" target="BmGMHnQxXQs_2eqhpalO-6">
          <mxGeometry relative="1" as="geometry">
            <mxPoint x="660" y="120" as="sourcePoint" />
          </mxGeometry>
        </mxCell>
        <mxCell id="BmGMHnQxXQs_2eqhpalO-65" style="edgeStyle=orthogonalEdgeStyle;rounded=0;orthogonalLoop=1;jettySize=auto;html=1;entryX=0.75;entryY=0;entryDx=0;entryDy=0;" edge="1" parent="1" target="BmGMHnQxXQs_2eqhpalO-19">
          <mxGeometry relative="1" as="geometry">
            <mxPoint x="600" y="90" as="sourcePoint" />
          </mxGeometry>
        </mxCell>
        <mxCell id="BmGMHnQxXQs_2eqhpalO-62" value="" style="shape=stencil(fZbdcgIhDIWfZm8zQAg/17Z9j85U606tdqz9e/tmZ0c0uJ47xP0I5JwEBl59bp8/1kNwn6fj4W39M76ctgM/DCGM++36OJ50NPDjwKvN4bh+PR6+9i/z74/n6ctp9H74nlb4nbmSKZeJCu5vngmZ6jzzNAO7cX8FVKEsBuBKrgKg9oAE8gkCbLeUhEoEQKSUDZDLeWYRKIl8MEDRmHwfyBrBG6Amyu4+kDxxMoB3jhwgYu7TVAsVkFcWCs4CTBEoF4RctKeOxHIf8IXYpikHikAIf+MNUW94AGSSaoAoFIE3AlOyeWU+p2E5S9yfQZcQILVuQOwZdJNoS9Ls3wA5u2XZTIHECqeJ9kDpSaauRiNVcAY1QhdBzeLBli5WazpkSsBLV25uRaqWRyFawTQzRRIQYirJzq5atkBqLfouwqUxLBepthWb10vrWZY6UOAeyKCCtDV625mm9gmUC4Wc3VLJMMIE1BsA2FW9JraVlQB7n3c9oMKhCLEvIM1zBPZ25/umNQ1tVEC2G+fFCC8g398O2hNQuQlVu752DBfA+q0ptnqO5JFmeuIuo9DY7KjY71UxdJV4EntifPWorW++R/dC4t7V3DlIB5cHx2bc7eb3yvX//QNFp+bHDT/+Aw==);lineShape=1;strokeColor=default;" vertex="1" parent="1">
          <mxGeometry x="496.18138082825817" y="85.19445533276189" width="6.67505681730745" height="6.664623166225446" as="geometry" />
        </mxCell>
        <mxCell id="BmGMHnQxXQs_2eqhpalO-80" style="edgeStyle=orthogonalEdgeStyle;rounded=0;orthogonalLoop=1;jettySize=auto;html=1;" edge="1" parent="1" source="BmGMHnQxXQs_2eqhpalO-66" target="BmGMHnQxXQs_2eqhpalO-75">
          <mxGeometry relative="1" as="geometry" />
        </mxCell>
        <mxCell id="BmGMHnQxXQs_2eqhpalO-66" value="&amp;nbsp;Table Cleaning Service Daemon" style="whiteSpace=wrap;html=1;aspect=fixed;" vertex="1" parent="1">
          <mxGeometry x="-170" y="1000" width="90" height="90" as="geometry" />
        </mxCell>
        <mxCell id="BmGMHnQxXQs_2eqhpalO-67" style="edgeStyle=orthogonalEdgeStyle;rounded=0;orthogonalLoop=1;jettySize=auto;html=1;entryX=0.5;entryY=0;entryDx=0;entryDy=0;entryPerimeter=0;" edge="1" parent="1" source="BmGMHnQxXQs_2eqhpalO-66" target="BmGMHnQxXQs_2eqhpalO-47">
          <mxGeometry relative="1" as="geometry" />
        </mxCell>
        <mxCell id="BmGMHnQxXQs_2eqhpalO-84" style="edgeStyle=orthogonalEdgeStyle;rounded=0;orthogonalLoop=1;jettySize=auto;html=1;entryX=1;entryY=0.5;entryDx=0;entryDy=0;" edge="1" parent="1" source="BmGMHnQxXQs_2eqhpalO-68" target="BmGMHnQxXQs_2eqhpalO-6">
          <mxGeometry relative="1" as="geometry" />
        </mxCell>
        <mxCell id="BmGMHnQxXQs_2eqhpalO-85" style="edgeStyle=orthogonalEdgeStyle;rounded=0;orthogonalLoop=1;jettySize=auto;html=1;entryX=1;entryY=0.5;entryDx=0;entryDy=0;" edge="1" parent="1" source="BmGMHnQxXQs_2eqhpalO-68" target="BmGMHnQxXQs_2eqhpalO-19">
          <mxGeometry relative="1" as="geometry" />
        </mxCell>
        <mxCell id="BmGMHnQxXQs_2eqhpalO-86" style="edgeStyle=orthogonalEdgeStyle;rounded=0;orthogonalLoop=1;jettySize=auto;html=1;entryX=0.75;entryY=1;entryDx=0;entryDy=0;" edge="1" parent="1" source="BmGMHnQxXQs_2eqhpalO-68" target="BmGMHnQxXQs_2eqhpalO-2">
          <mxGeometry relative="1" as="geometry">
            <Array as="points">
              <mxPoint x="-2" y="980" />
            </Array>
          </mxGeometry>
        </mxCell>
        <mxCell id="BmGMHnQxXQs_2eqhpalO-68" value="&amp;nbsp;Bill Generation Service Daemon" style="whiteSpace=wrap;html=1;aspect=fixed;" vertex="1" parent="1">
          <mxGeometry x="840" y="975" width="90" height="90" as="geometry" />
        </mxCell>
        <mxCell id="BmGMHnQxXQs_2eqhpalO-69" style="edgeStyle=orthogonalEdgeStyle;rounded=0;orthogonalLoop=1;jettySize=auto;html=1;entryX=0.5;entryY=1;entryDx=0;entryDy=0;entryPerimeter=0;" edge="1" parent="1" source="BmGMHnQxXQs_2eqhpalO-68" target="BmGMHnQxXQs_2eqhpalO-46">
          <mxGeometry relative="1" as="geometry">
            <Array as="points">
              <mxPoint x="640" y="1020" />
              <mxPoint x="640" y="1020" />
            </Array>
          </mxGeometry>
        </mxCell>
        <mxCell id="BmGMHnQxXQs_2eqhpalO-76" style="edgeStyle=orthogonalEdgeStyle;rounded=0;orthogonalLoop=1;jettySize=auto;html=1;entryX=0;entryY=0.75;entryDx=0;entryDy=0;" edge="1" parent="1" source="BmGMHnQxXQs_2eqhpalO-70" target="BmGMHnQxXQs_2eqhpalO-2">
          <mxGeometry relative="1" as="geometry">
            <Array as="points">
              <mxPoint x="-210" y="920" />
              <mxPoint x="-210" y="475" />
            </Array>
          </mxGeometry>
        </mxCell>
        <mxCell id="BmGMHnQxXQs_2eqhpalO-77" style="edgeStyle=orthogonalEdgeStyle;rounded=0;orthogonalLoop=1;jettySize=auto;html=1;entryX=0.25;entryY=1;entryDx=0;entryDy=0;" edge="1" parent="1" source="BmGMHnQxXQs_2eqhpalO-70" target="BmGMHnQxXQs_2eqhpalO-6">
          <mxGeometry relative="1" as="geometry">
            <Array as="points">
              <mxPoint x="-330" y="970" />
              <mxPoint x="590" y="970" />
            </Array>
          </mxGeometry>
        </mxCell>
        <mxCell id="BmGMHnQxXQs_2eqhpalO-78" style="edgeStyle=orthogonalEdgeStyle;rounded=0;orthogonalLoop=1;jettySize=auto;html=1;entryX=0;entryY=0.5;entryDx=0;entryDy=0;" edge="1" parent="1" source="BmGMHnQxXQs_2eqhpalO-70" target="BmGMHnQxXQs_2eqhpalO-1">
          <mxGeometry relative="1" as="geometry">
            <Array as="points">
              <mxPoint x="-440" y="920" />
              <mxPoint x="-440" y="130" />
            </Array>
          </mxGeometry>
        </mxCell>
        <mxCell id="BmGMHnQxXQs_2eqhpalO-70" value="Kitchen Cook Service" style="rounded=1;whiteSpace=wrap;html=1;" vertex="1" parent="1">
          <mxGeometry x="-420" y="890" width="180" height="60" as="geometry" />
        </mxCell>
        <mxCell id="BmGMHnQxXQs_2eqhpalO-74" style="edgeStyle=orthogonalEdgeStyle;rounded=0;orthogonalLoop=1;jettySize=auto;html=1;entryX=1;entryY=0.5;entryDx=0;entryDy=0;" edge="1" parent="1" source="BmGMHnQxXQs_2eqhpalO-72" target="BmGMHnQxXQs_2eqhpalO-73">
          <mxGeometry relative="1" as="geometry" />
        </mxCell>
        <mxCell id="BmGMHnQxXQs_2eqhpalO-72" value="Kitchen Waiter Daemon" style="whiteSpace=wrap;html=1;aspect=fixed;" vertex="1" parent="1">
          <mxGeometry x="840" y="45" width="115" height="115" as="geometry" />
        </mxCell>
        <mxCell id="BmGMHnQxXQs_2eqhpalO-73" value="Kitchen Waiter Service" style="rounded=1;whiteSpace=wrap;html=1;" vertex="1" parent="1">
          <mxGeometry x="600" y="58.53" width="120" height="60" as="geometry" />
        </mxCell>
        <mxCell id="BmGMHnQxXQs_2eqhpalO-83" style="edgeStyle=orthogonalEdgeStyle;rounded=0;orthogonalLoop=1;jettySize=auto;html=1;entryX=0.75;entryY=1;entryDx=0;entryDy=0;" edge="1" parent="1" source="BmGMHnQxXQs_2eqhpalO-75" target="BmGMHnQxXQs_2eqhpalO-6">
          <mxGeometry relative="1" as="geometry">
            <Array as="points">
              <mxPoint x="-330" y="1150" />
              <mxPoint x="670" y="1150" />
            </Array>
          </mxGeometry>
        </mxCell>
        <mxCell id="BmGMHnQxXQs_2eqhpalO-75" value="Table Cleaning Service" style="rounded=1;whiteSpace=wrap;html=1;" vertex="1" parent="1">
          <mxGeometry x="-420" y="1015" width="180" height="60" as="geometry" />
        </mxCell>
        <mxCell id="BmGMHnQxXQs_2eqhpalO-82" style="edgeStyle=orthogonalEdgeStyle;rounded=0;orthogonalLoop=1;jettySize=auto;html=1;" edge="1" parent="1" source="BmGMHnQxXQs_2eqhpalO-75" target="BmGMHnQxXQs_2eqhpalO-19">
          <mxGeometry relative="1" as="geometry">
            <Array as="points">
              <mxPoint x="-330" y="1110" />
              <mxPoint x="442" y="1110" />
            </Array>
          </mxGeometry>
        </mxCell>
        <mxCell id="BmGMHnQxXQs_2eqhpalO-87" style="edgeStyle=orthogonalEdgeStyle;rounded=0;orthogonalLoop=1;jettySize=auto;html=1;" edge="1" parent="1" source="BmGMHnQxXQs_2eqhpalO-68">
          <mxGeometry relative="1" as="geometry">
            <mxPoint x="-377" y="160" as="targetPoint" />
            <Array as="points">
              <mxPoint x="885" y="1170" />
              <mxPoint x="-377" y="1170" />
            </Array>
          </mxGeometry>
        </mxCell>
      </root>
    </mxGraphModel>
  </diagram>
</mxfile>
